<?xml version="1.0" encoding="utf-8"?>
<!-- Generator: Adobe Illustrator 15.0.0, SVG Export Plug-In . SVG Version: 6.00 Build 0)  -->
<!DOCTYPE svg PUBLIC "-//W3C//DTD SVG 1.1//EN" "http://www.w3.org/Graphics/SVG/1.1/DTD/svg11.dtd">
<svg version="1.1" id="Layer_1" xmlns="http://www.w3.org/2000/svg" xmlns:xlink="http://www.w3.org/1999/xlink" x="0px" y="0px"
	 width="83px" height="63.333px" viewBox="0 0 83 63.333" enable-background="new 0 0 83 63.333" xml:space="preserve">
<g>
	<g>
		<path fill="#FFFFFF" d="M75.941,21.831l-0.477-1.789c-0.199-0.795,0.079-0.875,0.079-0.875V18.81
			c-0.039-0.517-0.596-0.557-0.596-0.557l-1.113-0.04l-0.04-0.675c-0.238-0.716-0.993-0.478-0.993-0.478l-1.909,0.795l-0.079,0.239
			h-3.34l-0.318,0.357H66.56l-0.358-0.357l-15.466-0.239v0.198h-0.914l-0.199-0.357l-13.836-0.12
			c-0.12-0.755-1.074-0.715-1.074-0.715c-0.238,0-13.04,0.159-13.04,0.159l-0.756-0.795c-0.238-0.238-0.756-0.318-0.756-0.318
			l-0.715-0.08c-0.557,0-0.557,0.438-0.557,0.438l-0.04,0.755l-1.113,0.119l-2.027,1.79l-0.597,1.193
			c-0.676,0.278-1.67-0.438-1.67-0.438c-1.392,0.239-0.994,1.233-0.994,1.233c1.471,1.829,1.153,3.181,1.153,3.181l-0.637,1.63
			c-0.517,0.914-1.312,0.795-1.312,0.795C8.233,27,7.358,27.994,7.358,27.994c0,1.392,1.511,1.629,1.511,1.629
			c3.539,0.159,5.01,0.716,5.01,0.716c2.544,0.636,1.551,4.294,1.551,4.294l-0.199,0.239c-2.107,5.646-4.254,9.461-4.254,9.461
			c-2.146,3.103-1.869,6.402-1.869,6.402l0.518,0.159l-0.238,1.033c-0.239,1.392,2.902,1.312,2.902,1.312
			c0.954,0.08,0.636,0.477,0.636,0.477c-0.159,0.24-0.517,0.318-0.517,0.318l-0.199,0.318l0.04,0.358
			c4.651,0.675,13.518,0.636,13.518,0.636l0.079-0.756l2.863-12.842c0.716-3.458,2.465-4.293,2.465-4.293
			c0.397-0.278,0.994-0.119,0.994-0.119l0.835,0.238h8.15l0.159-0.835l-0.278-0.676c-0.079-5.805,3.657-6.202,3.657-6.202
			c1.71-0.517,26.162,0.716,26.162,0.716c1.271,0,1.948-0.955,1.948-0.955l0.079-0.397c1.192-0.199,2.425-4.333,2.425-4.333
			C76.141,23.024,75.941,21.831,75.941,21.831z M40.199,34.912c-0.04,1.63-1.14,1.67-1.14,1.67l-5.898-0.093
			c-2.279-0.172-2.253-2.187-2.253-2.187c0-0.703,0.345-0.199,0.345-0.199c0.756,1.418,1.591,1.802,1.591,1.802
			c1.418,0.769,0.967-0.345,0.967-0.345c-1.961-3.684,0.968-5.5,0.968-5.5l2.889-0.132c2.135,0.292,2.532,2.147,2.532,2.147V34.912z
			"/>
	</g>
</g>
</svg>
