<?xml version="1.0" encoding="utf-8"?>
<!-- Generator: Adobe Illustrator 15.0.0, SVG Export Plug-In . SVG Version: 6.00 Build 0)  -->
<!DOCTYPE svg PUBLIC "-//W3C//DTD SVG 1.1//EN" "http://www.w3.org/Graphics/SVG/1.1/DTD/svg11.dtd">
<svg version="1.1" id="Layer_1" xmlns="http://www.w3.org/2000/svg" xmlns:xlink="http://www.w3.org/1999/xlink" x="0px" y="0px"
	 width="341px" height="77px" viewBox="0 0 341 77" enable-background="new 0 0 341 77" xml:space="preserve">
<g>
	<path d="M26.172,18.877c5.992,0,9.072,3.584,9.072,9.856v1.232H29.42v-1.624c0-2.8-1.12-3.864-3.08-3.864s-3.08,1.064-3.08,3.864
		c0,8.064,12.04,9.576,12.04,20.776c0,6.272-3.136,9.856-9.184,9.856c-6.048,0-9.184-3.584-9.184-9.856v-2.408h5.824v2.8
		c0,2.8,1.232,3.808,3.192,3.808c1.96,0,3.192-1.008,3.192-3.808c0-8.064-12.04-9.576-12.04-20.776
		C17.1,22.461,20.18,18.877,26.172,18.877z"/>
	<path d="M38.324,28.733c0-6.272,3.304-9.856,9.352-9.856s9.352,3.584,9.352,9.856v20.384c0,6.272-3.304,9.856-9.352,9.856
		s-9.352-3.584-9.352-9.856V28.733z M44.484,49.509c0,2.8,1.232,3.864,3.192,3.864s3.192-1.064,3.192-3.864V28.341
		c0-2.8-1.232-3.864-3.192-3.864s-3.192,1.064-3.192,3.864V49.509z"/>
	<path d="M67.164,36.742h7.952v5.6h-7.952v16.184h-6.16v-39.2H77.3v5.6H67.164V36.742z"/>
	<path d="M78.476,19.326h19.04v5.6h-6.44v33.6h-6.16v-33.6h-6.44V19.326z"/>
	<path d="M113.866,37.638l-2.24,20.888h-8.456l-4.368-39.2h5.992l3.304,30.912l2.968-30.912h5.936l3.08,31.136l3.192-31.136h5.376
		l-4.368,39.2h-8.176L113.866,37.638z"/>
	<path d="M150.826,58.525h-6.216l-1.064-7.112h-7.56l-1.064,7.112h-5.656l6.272-39.2h9.016L150.826,58.525z M136.77,46.093h5.936
		l-2.968-19.824L136.77,46.093z"/>
	<path d="M166.562,58.525c-0.336-1.008-0.561-1.624-0.561-4.816v-6.16c0-3.64-1.231-4.984-4.031-4.984h-2.128v15.96h-6.16v-39.2
		h9.296c6.384,0,9.128,2.968,9.128,9.016v3.08c0,4.032-1.288,6.664-4.032,7.952c3.08,1.288,4.088,4.256,4.088,8.344v6.048
		c0,1.904,0.057,3.304,0.672,4.76H166.562z M159.842,24.926v12.04h2.407c2.296,0,3.696-1.008,3.696-4.144v-3.864
		c0-2.8-0.952-4.032-3.136-4.032H159.842z"/>
	<path d="M181.233,35.846h8.455v5.6h-8.455v11.48h10.64v5.6h-16.8v-39.2h16.8v5.6h-10.64V35.846z"/>
	<path d="M212.412,18.629c0.501,0,0.752,0.072,0.752,0.215l-1.16,5.973c-0.487,0.229-0.938,0.344-1.354,0.344h-0.559
		c-0.315,0-0.566-1.153-0.752-3.459c-2.363,0.444-4.226,0.96-5.586,1.547c-2.135,1.132-3.56,2.564-4.275,4.297
		c-0.917,1.862-1.375,4.698-1.375,8.508v2.857c0,5.715,0.207,8.988,0.623,9.818c0.701,2.22,1.833,3.76,3.395,4.619
		c1.317,0.73,2.843,1.096,4.576,1.096c1.633,0,3.738-0.408,6.316-1.225c0.458,0.945,0.688,1.647,0.688,2.105v0.279
		c0,0.673-0.702,1.167-2.105,1.482c-2.421,0.96-4.713,1.439-6.875,1.439c-5.572,0-8.931-3.81-10.076-11.43
		c-0.229-1.977-0.344-3.91-0.344-5.801c0-3.924,0.451-9.03,1.354-15.318c0.143-0.959,0.938-2.206,2.385-3.738
		C200.932,19.832,205.723,18.629,212.412,18.629z"/>
	<path d="M216.107,18.908h0.666c0.602,0,1.017,0.043,1.246,0.129l0.602-0.064c3.752,0,7.369,0.867,10.85,2.6
		c2.721,1.733,4.082,3.889,4.082,6.467v0.688c0,3.781-2.292,6.739-6.875,8.873l-0.752,0.258c4.54,10.642,6.811,16.736,6.811,18.283
		v0.193c-0.229,1.146-0.981,1.719-2.256,1.719h-0.193c-0.187-0.1-0.917-1.647-2.191-4.641l-6.617-14.395l-1.826,0.215l0.129,18.885
		c0,0.272-0.315,0.408-0.945,0.408h-0.279c-1.146,0-2.191-0.157-3.137-0.473l0.064-0.408l0.15-38.393
		C215.691,19.023,215.85,18.908,216.107,18.908z M219.438,23.334l0.15,13.041c0.816,0,2.678-0.709,5.586-2.127
		c2.363-1.575,3.545-3.28,3.545-5.113v-0.473c0-2.707-2.686-4.461-8.057-5.264L219.438,23.334z"/>
	<path d="M236.346,18.801c0.701,0,1.633,0.136,2.793,0.408l0.064,9.969v27.779c0,1.046-0.229,1.568-0.688,1.568h-0.537
		c-1.117,0-2.02-0.2-2.707-0.602V19.209C235.4,18.937,235.758,18.801,236.346,18.801z"/>
	<path d="M251.041,18.672c4.841,0,7.842,1.11,9.002,3.33c0.945,1.347,1.661,3.681,2.148,7.004c0.701,4.999,1.053,9.088,1.053,12.268
		v1.096c0,7.777-2.335,12.884-7.004,15.318c-1.347,0.559-2.614,0.838-3.803,0.838h-0.43c-3.581,0-6.488-3.072-8.723-9.217
		c-1.576-5.356-2.363-10.556-2.363-15.598c0-7.849,2.521-12.726,7.562-14.631C249.63,18.808,250.482,18.672,251.041,18.672z
		 M244.811,32.25c0,5.099,0.873,10.484,2.621,16.156c1.26,3.323,3.064,4.984,5.414,4.984c2.377-0.258,3.695-0.673,3.953-1.246
		c0.688-0.473,1.289-1.583,1.805-3.33c0.544-1.819,0.816-4.361,0.816-7.627v-0.129c0-6.817-0.645-11.924-1.934-15.318
		c-1.189-2.12-2.736-3.18-4.641-3.18h-0.215c-1.905,0.172-3.824,1.024-5.758,2.557c-0.889,0.716-1.512,1.962-1.869,3.738
		C244.875,30.202,244.811,31.333,244.811,32.25z"/>
	<path d="M265.994,18.564c1.074,0.086,1.998,0.272,2.771,0.559l-0.215,35.686c6.903-0.559,11.737-0.909,14.502-1.053
		c0.172,0,0.308,0.645,0.408,1.934c-0.029,1.433-0.122,2.148-0.279,2.148l-18.154,0.688l-0.064-0.064v-39.08
		C264.963,18.837,265.307,18.564,265.994,18.564z"/>
	<path d="M286.211,18.564c1.074,0.086,1.998,0.272,2.771,0.559l-0.215,35.686c6.903-0.559,11.737-0.909,14.502-1.053
		c0.172,0,0.308,0.645,0.408,1.934c-0.029,1.433-0.122,2.148-0.279,2.148l-18.154,0.688l-0.064-0.064v-39.08
		C285.18,18.837,285.523,18.564,286.211,18.564z"/>
	<path d="M311.995,18.672c4.841,0,7.842,1.11,9.002,3.33c0.945,1.347,1.661,3.681,2.148,7.004c0.701,4.999,1.053,9.088,1.053,12.268
		v1.096c0,7.777-2.335,12.884-7.004,15.318c-1.347,0.559-2.614,0.838-3.803,0.838h-0.43c-3.581,0-6.488-3.072-8.723-9.217
		c-1.576-5.356-2.363-10.556-2.363-15.598c0-7.849,2.521-12.726,7.562-14.631C310.584,18.808,311.437,18.672,311.995,18.672z
		 M305.765,32.25c0,5.099,0.873,10.484,2.621,16.156c1.26,3.323,3.064,4.984,5.414,4.984c2.377-0.258,3.695-0.673,3.953-1.246
		c0.688-0.473,1.289-1.583,1.805-3.33c0.544-1.819,0.816-4.361,0.816-7.627v-0.129c0-6.817-0.645-11.924-1.934-15.318
		c-1.189-2.12-2.736-3.18-4.641-3.18h-0.215c-1.905,0.172-3.824,1.024-5.758,2.557c-0.889,0.716-1.512,1.962-1.869,3.738
		C305.829,30.202,305.765,31.333,305.765,32.25z"/>
</g>
</svg>
