<?xml version="1.0" encoding="utf-8"?>
<!-- Generator: Adobe Illustrator 15.0.0, SVG Export Plug-In . SVG Version: 6.00 Build 0)  -->
<!DOCTYPE svg PUBLIC "-//W3C//DTD SVG 1.1//EN" "http://www.w3.org/Graphics/SVG/1.1/DTD/svg11.dtd">
<svg version="1.1" id="Layer_1" xmlns="http://www.w3.org/2000/svg" xmlns:xlink="http://www.w3.org/1999/xlink" x="0px" y="0px"
	 width="512px" height="512px" viewBox="0 0 512 512" enable-background="new 0 0 512 512" xml:space="preserve">
<g id="layer1" transform="translate(-85.742598,-163.81907)" inkscape:groupmode="layer" inkscape:label="Ebene 1">
	<g id="g2404">
		
			<path id="path2160" sodipodi:cy="0" sodipodi:cx="0" sodipodi:type="arc" sodipodi:rx="250" sodipodi:ry="250" fill="none" stroke="#FFFFFF" stroke-width="22" stroke-linecap="square" stroke-linejoin="round" d="
			M522.839,420.319c0,99.741-80.855,180.597-180.597,180.597c-99.741,0-180.597-80.855-180.597-180.597
			s80.856-180.597,180.597-180.597C441.984,239.722,522.839,320.578,522.839,420.319z"/>
		<path id="path3134" fill="none" stroke="#FFFFFF" stroke-width="9.391" d="M161.646,420.319h361.193"/>
		<path id="path5074" fill="none" stroke="#FFFFFF" stroke-width="21.6716" d="M164.536,420.319h32.281"/>
		<path id="path6045" fill="none" stroke="#FFFFFF" stroke-width="21.6716" d="M487.669,420.319h32.28"/>
		<path id="path6099" fill="none" stroke="#FFFFFF" stroke-width="9.391" d="M219.294,431.155v-21.672"/>
		<path id="path6101" fill="none" stroke="#FFFFFF" stroke-width="9.391" d="M260.277,431.155v-21.672"/>
		<path id="path6103" fill="none" stroke="#FFFFFF" stroke-width="9.391" d="M301.26,431.155v-21.672"/>
		<path id="path6105" fill="none" stroke="#FFFFFF" stroke-width="9.391" d="M383.226,431.155v-21.672"/>
		<path id="path6107" fill="none" stroke="#FFFFFF" stroke-width="9.391" d="M424.209,431.155v-21.672"/>
		<path id="path6109" fill="none" stroke="#FFFFFF" stroke-width="9.391" d="M465.192,431.155v-21.672"/>
		<path id="path6116" fill="none" stroke="#FFFFFF" stroke-width="9.391" d="M342.243,431.155v-21.672"/>
		<path id="path6292" fill="none" stroke="#FFFFFF" stroke-width="9.391" d="M342.243,239.722v361.193"/>
		<path id="path6294" fill="none" stroke="#FFFFFF" stroke-width="21.6716" d="M342.243,242.612v32.28"/>
		<path id="path6296" fill="none" stroke="#FFFFFF" stroke-width="21.6716" d="M342.243,565.746v32.28"/>
		<path id="path6300" fill="none" stroke="#FFFFFF" stroke-width="9.391" d="M331.407,297.37h21.671"/>
		<path id="path6302" fill="none" stroke="#FFFFFF" stroke-width="9.391" d="M331.407,338.353h21.671"/>
		<path id="path6304" fill="none" stroke="#FFFFFF" stroke-width="9.391" d="M331.407,379.336h21.671"/>
		<path id="path6306" fill="none" stroke="#FFFFFF" stroke-width="9.391" d="M331.407,461.302h21.671"/>
		<path id="path6308" fill="none" stroke="#FFFFFF" stroke-width="9.391" d="M331.407,502.285h21.671"/>
		<path id="path6310" fill="none" stroke="#FFFFFF" stroke-width="9.391" d="M331.407,543.268h21.671"/>
		<path id="path6312" fill="none" stroke="#FFFFFF" stroke-width="9.391" d="M331.407,420.319h21.671"/>
	</g>
</g>
</svg>
