<?xml version="1.0" encoding="utf-8"?>
<!-- Generator: Adobe Illustrator 15.0.0, SVG Export Plug-In . SVG Version: 6.00 Build 0)  -->
<!DOCTYPE svg PUBLIC "-//W3C//DTD SVG 1.1//EN" "http://www.w3.org/Graphics/SVG/1.1/DTD/svg11.dtd">
<svg version="1.1" id="Layer_1" xmlns="http://www.w3.org/2000/svg" xmlns:xlink="http://www.w3.org/1999/xlink" x="0px" y="0px"
	 width="304px" height="308px" viewBox="0 0 304 308" enable-background="new 0 0 304 308" xml:space="preserve">
<g>
	<circle fill="none" stroke="#FFFFFF" stroke-width="2" stroke-miterlimit="10" cx="150.697" cy="151.101" r="88.4"/>
	<path fill="none" stroke="#FFFFFF" stroke-width="2" stroke-miterlimit="10" d="M150.697,151.102"/>
</g>
<path fill="#FFFFFF" d="M150.305,52.337l5.683,10.633l2.383,0.088l-5.316-15.671l1.1-6.233l13.938,9.408l0.127-1.812l-12.554-11.821
	l-4.091-1.42h0.02c1.819-0.553,3.143-2.255,3.143-4.255c0-2.448-1.985-4.433-4.433-4.433c-2.449,0-4.434,1.985-4.434,4.433
	c0,2,1.323,3.702,3.143,4.255h0.02l-4.09,1.42l-12.554,11.821l0.128,1.812l13.937-9.408l1.1,6.233l-5.316,15.671l2.383-0.088
	L150.305,52.337z"/>
<path fill="#FFFFFF" d="M150.305,52.337l5.683,10.633l2.383,0.088l-5.316-15.671l1.1-6.233l13.938,9.408l0.127-1.812l-12.554-11.821
	l-4.091-1.42h0.02c1.819-0.553,3.143-2.255,3.143-4.255c0-2.448-1.985-4.433-4.433-4.433c-2.449,0-4.434,1.985-4.434,4.433
	c0,2,1.323,3.702,3.143,4.255h0.02l-4.09,1.42l-12.554,11.821l0.128,1.812l13.937-9.408l1.1,6.233l-5.316,15.671l2.383-0.088
	L150.305,52.337z"/>
<path fill="#FFFFFF" d="M116.549,58.427l8.978,8.048l2.269-0.732l-10.355-12.907l-1.099-6.234l16.314,4.074l-0.499-1.748
	l-15.84-6.814l-4.33,0.064l0.02-0.007c1.52-1.141,2.181-3.193,1.497-5.072c-0.838-2.301-3.382-3.487-5.683-2.65
	c-2.301,0.837-3.487,3.381-2.649,5.683c0.684,1.879,2.51,3.025,4.408,2.923l0.018-0.007l-3.357,2.733l-7.753,15.401l0.739,1.66
	l9.88-13.607l3.167,5.48l0.363,16.545l2.21-0.897L116.549,58.427z"/>
<path fill="#FFFFFF" d="M86.913,75.694l11.189,4.493l1.882-1.466l-14.146-8.587l-3.163-5.482L99.398,62.9l-1.066-1.471
	l-17.216-0.986l-4.046,1.542l0.015-0.013c1.038-1.593,0.958-3.748-0.328-5.279c-1.573-1.875-4.37-2.12-6.246-0.546
	c-1.875,1.574-2.121,4.37-0.546,6.246c1.286,1.532,3.393,1.986,5.142,1.239l0.016-0.013l-2.221,3.718l-2.02,17.125l1.263,1.306
	l4.631-16.166l4.849,4.068l5.999,15.422l1.77-1.599L86.913,75.694z"/>
<path fill="#FFFFFF" d="M64.969,102.057l12.05,0.395l1.268-2.02l-16.229-3.232l-4.848-4.068l15.116-7.367l-1.505-1.017
	l-16.515,4.961l-3.275,2.833l0.01-0.018c0.431-1.851-0.382-3.849-2.113-4.849c-2.12-1.225-4.832-0.498-6.056,1.623
	c-1.225,2.12-0.499,4.832,1.623,6.057c1.731,1,3.867,0.705,5.256-0.594l0.01-0.018l-0.816,4.253l3.96,16.783l1.632,0.794
	l-1.178-16.773l5.949,2.165l10.913,12.439l1.115-2.107L64.969,102.057z"/>
<path fill="#FFFFFF" d="M53.365,134.334l11.459-3.751l0.5-2.331l-16.357,2.513l-5.947-2.166l11.685-12.092l-1.762-0.441
	l-13.821,10.31l-2.11,3.782l0.004-0.02c-0.229-1.887-1.675-3.486-3.645-3.833c-2.411-0.425-4.71,1.185-5.137,3.596
	c-0.425,2.412,1.185,4.711,3.597,5.137c1.969,0.347,3.875-0.66,4.736-2.356l0.002-0.02l0.688,4.274l9.461,14.417l1.807,0.189
	l-6.843-15.36h6.33l14.509,7.957l0.328-2.362L53.365,134.334z"/>
<path fill="#FFFFFF" d="M53.5,168.633l9.485-7.443l-0.327-2.362l-14.51,7.957l-6.33-0.002l6.846-15.358l-1.807,0.188l-9.462,14.415
	l-0.689,4.276l-0.002-0.021c-0.86-1.694-2.768-2.703-4.736-2.355c-2.411,0.425-4.021,2.725-3.597,5.137
	c0.426,2.41,2.725,4.021,5.136,3.596c1.969-0.348,3.417-1.946,3.646-3.833l-0.004-0.02l2.109,3.782L53.077,186.9l1.763-0.44
	l-11.685-12.094l5.948-2.165l16.355,2.515l-0.499-2.332L53.5,168.633z"/>
<path fill="#FFFFFF" d="M65.357,200.819l6.367-10.239l-1.115-2.107l-10.914,12.438l-5.949,2.165l1.18-16.775l-1.634,0.795
	l-3.961,16.782l0.815,4.253l-0.01-0.018c-1.389-1.298-3.524-1.594-5.256-0.594c-2.121,1.224-2.847,3.935-1.623,6.057
	c1.224,2.12,3.935,2.847,6.056,1.624c1.731-1,2.544-2.998,2.114-4.85l-0.01-0.018l3.275,2.834l16.513,4.962l1.506-1.016
	l-15.116-7.368l4.848-4.069l16.23-3.23l-1.268-2.021L65.357,200.819z"/>
<path fill="#FFFFFF" d="M87.507,227.008l2.483-11.799l-1.771-1.598l-6.001,15.421l-4.85,4.068l-4.628-16.167l-1.263,1.307
	l2.018,17.125l2.22,3.718l-0.015-0.013c-1.75-0.746-3.857-0.293-5.143,1.239c-1.573,1.876-1.329,4.672,0.547,6.246
	c1.875,1.575,4.671,1.33,6.246-0.545c1.285-1.532,1.366-3.687,0.328-5.279l-0.016-0.013l4.047,1.542l17.214-0.984l1.068-1.47
	l-16.725-1.754l3.165-5.482l14.146-8.586l-1.881-1.466L87.507,227.008z"/>
<path fill="#FFFFFF" d="M117.284,244.042l-1.704-11.936l-2.21-0.897l-0.363,16.544l-3.167,5.481l-9.878-13.608l-0.74,1.659
	l7.753,15.401l3.359,2.734l-0.02-0.007c-1.898-0.104-3.725,1.044-4.409,2.923c-0.836,2.301,0.349,4.845,2.65,5.683
	c2.301,0.838,4.845-0.349,5.683-2.649c0.684-1.88,0.023-3.932-1.498-5.074l-0.02-0.006l4.33,0.065l15.84-6.813l0.5-1.748
	l-16.316,4.073l1.099-6.234l10.356-12.906l-2.27-0.734L117.284,244.042z"/>
<path fill="#FFFFFF" d="M151.085,249.866l-5.683-10.634l-2.383-0.087l5.315,15.671l-1.1,6.233l-13.937-9.409l-0.127,1.812
	l12.553,11.822l4.09,1.42h-0.021c-1.819,0.553-3.143,2.255-3.143,4.255c0,2.448,1.985,4.433,4.434,4.433
	c2.448,0,4.434-1.985,4.434-4.433c0-2-1.323-3.702-3.142-4.254h-0.021l4.092-1.42L169,253.455l-0.127-1.812l-13.938,9.407
	l-1.1-6.234l5.318-15.67l-2.384,0.088L151.085,249.866z"/>
<path fill="#FFFFFF" d="M184.84,243.778l-8.977-8.049l-2.269,0.733l10.355,12.907l1.097,6.234l-16.315-4.074l0.5,1.747l15.84,6.815
	l4.33-0.064l-0.02,0.007c-1.52,1.141-2.182,3.194-1.498,5.072c0.837,2.301,3.382,3.487,5.682,2.65
	c2.301-0.837,3.487-3.382,2.65-5.683c-0.684-1.878-2.51-3.026-4.408-2.923l-0.019,0.007l3.357-2.734l7.756-15.4l-0.74-1.659
	l-9.88,13.607l-3.166-5.481l-0.362-16.545l-2.21,0.897L184.84,243.778z"/>
<path fill="#FFFFFF" d="M214.478,226.512l-11.188-4.494l-1.883,1.465l14.145,8.588l3.164,5.482l-16.725,1.751l1.068,1.471
	l17.215,0.987l4.047-1.542l-0.016,0.013c-1.038,1.593-0.958,3.748,0.328,5.279c1.574,1.875,4.37,2.121,6.246,0.547
	c1.875-1.574,2.121-4.371,0.548-6.247c-1.286-1.532-3.394-1.985-5.143-1.24l-0.015,0.013l2.221-3.717l2.02-17.125l-1.263-1.307
	l-4.631,16.166l-4.85-4.068l-5.999-15.423l-1.77,1.599L214.478,226.512z"/>
<path fill="#FFFFFF" d="M236.424,200.147l-12.05-0.396l-1.268,2.02l16.229,3.232l4.849,4.069l-15.117,7.366l1.507,1.017l16.513-4.96
	l3.275-2.832l-0.009,0.017c-0.431,1.852,0.381,3.849,2.112,4.849c2.122,1.224,4.833,0.498,6.057-1.622
	c1.225-2.121,0.499-4.832-1.622-6.057c-1.731-0.999-3.867-0.704-5.255,0.594l-0.01,0.018l0.815-4.252l-3.959-16.782l-1.634-0.796
	l1.178,16.774l-5.949-2.164l-10.912-12.44l-1.117,2.107L236.424,200.147z"/>
<path fill="#FFFFFF" d="M248.029,167.87l-11.459,3.75l-0.5,2.332l16.355-2.514l5.947,2.166l-11.685,12.092l1.762,0.44l13.822-10.31
	l2.108-3.782l-0.002,0.02c0.228,1.887,1.675,3.486,3.644,3.833c2.41,0.426,4.711-1.183,5.136-3.595
	c0.425-2.411-1.185-4.711-3.597-5.137c-1.969-0.347-3.875,0.661-4.735,2.356l-0.004,0.019l-0.688-4.274l-9.46-14.417l-1.807-0.189
	l6.844,15.361h-6.329l-14.509-7.958l-0.329,2.362L248.029,167.87z"/>
<path fill="#FFFFFF" d="M247.894,133.57l-9.485,7.443l0.328,2.362l14.51-7.955l6.33,0l-6.846,15.359l1.808-0.188l9.462-14.416
	l0.689-4.275l0.003,0.02c0.861,1.696,2.767,2.703,4.735,2.356c2.412-0.425,4.022-2.724,3.597-5.136
	c-0.425-2.412-2.725-4.021-5.136-3.596c-1.968,0.347-3.416,1.946-3.644,3.833l0.003,0.02l-2.109-3.782l-13.821-10.312l-1.762,0.44
	l11.684,12.093l-5.947,2.166l-16.355-2.516l0.499,2.332L247.894,133.57z"/>
<path fill="#FFFFFF" d="M236.036,101.385l-6.367,10.238l1.116,2.109l10.914-12.439l5.948-2.164l-1.179,16.774l1.633-0.795
	l3.961-16.782l-0.815-4.252l0.01,0.018c1.389,1.298,3.524,1.594,5.255,0.594c2.122-1.224,2.847-3.937,1.624-6.057
	c-1.224-2.121-3.936-2.847-6.056-1.623c-1.732,1-2.544,2.997-2.114,4.849l0.01,0.017l-3.275-2.833l-16.513-4.962l-1.505,1.016
	l15.115,7.367l-4.849,4.07l-16.23,3.229l1.268,2.021L236.036,101.385z"/>
<path fill="#FFFFFF" d="M213.883,75.195L211.4,86.993l1.771,1.599l6-15.422l4.85-4.068l4.629,16.167l1.264-1.307l-2.019-17.125
	l-2.221-3.717l0.016,0.013c1.749,0.745,3.857,0.292,5.142-1.24c1.575-1.875,1.33-4.672-0.545-6.246
	c-1.875-1.574-4.672-1.33-6.247,0.546c-1.286,1.531-1.365,3.687-0.328,5.278l0.016,0.013l-4.046-1.542l-17.215,0.985l-1.066,1.471
	l16.724,1.753l-3.165,5.482l-14.146,8.586l1.882,1.465L213.883,75.195z"/>
<path fill="#FFFFFF" d="M184.112,58.161l1.703,11.937l2.209,0.897l0.364-16.544l3.167-5.481l9.878,13.608l0.74-1.66l-7.753-15.401
	l-3.357-2.734l0.018,0.007c1.898,0.102,3.725-1.043,4.408-2.923c0.838-2.301-0.349-4.845-2.649-5.683
	c-2.302-0.837-4.846,0.349-5.684,2.649c-0.683,1.879-0.021,3.932,1.499,5.073l0.018,0.008l-4.33-0.065l-15.839,6.813l-0.5,1.747
	l16.314-4.072l-1.099,6.234l-10.356,12.906l2.271,0.733L184.112,58.161z"/>
</svg>
